<?xml version="1.0" encoding="UTF-8" standalone="no"?><svg id="visual" viewBox="0 0 2000 600" width="2000" height="600" xmlns="http://www.w3.org/2000/svg" xmlns:xlink="http://www.w3.org/1999/xlink" version="1.1"><rect x="0" y="0" width="2000" height="600" fill="#ffffff"></rect><path d="M0 246L667 253L1333 325L2000 245L2000 601L1333 601L667 601L0 601Z" fill="#84b7fd"></path><path d="M0 322L667 401L1333 386L2000 385L2000 601L1333 601L667 601L0 601Z" fill="#a5cafe"></path><path d="M0 413L667 451L1333 468L2000 401L2000 601L1333 601L667 601L0 601Z" fill="#c5ddfe"></path><path d="M0 502L667 519L1333 511L2000 481L2000 601L1333 601L667 601L0 601Z" fill="#e5f0ff"></path></svg>